<?xml version="1.0" encoding="utf-8"?>
<svg xmlns="http://www.w3.org/2000/svg" xmlns:xlink="http://www.w3.org/1999/xlink" style="margin: auto; background: none; display: block; shape-rendering: auto;" width="261px" height="261px" viewBox="0 0 100 100" preserveAspectRatio="xMidYMid">
<g transform="rotate(0 50 50)">
  <rect x="48.5" y="13.5" rx="1.5" ry="1.5" width="3" height="3" fill="#e4812f">
    <animate attributeName="opacity" values="1;0" keyTimes="0;1" dur="1.0526315789473684s" begin="-0.9649122807017544s" repeatCount="indefinite"></animate>
  </rect>
</g><g transform="rotate(30 50 50)">
  <rect x="48.5" y="13.5" rx="1.5" ry="1.5" width="3" height="3" fill="#e4812f">
    <animate attributeName="opacity" values="1;0" keyTimes="0;1" dur="1.0526315789473684s" begin="-0.8771929824561403s" repeatCount="indefinite"></animate>
  </rect>
</g><g transform="rotate(60 50 50)">
  <rect x="48.5" y="13.5" rx="1.5" ry="1.5" width="3" height="3" fill="#e4812f">
    <animate attributeName="opacity" values="1;0" keyTimes="0;1" dur="1.0526315789473684s" begin="-0.7894736842105263s" repeatCount="indefinite"></animate>
  </rect>
</g><g transform="rotate(90 50 50)">
  <rect x="48.5" y="13.5" rx="1.5" ry="1.5" width="3" height="3" fill="#e4812f">
    <animate attributeName="opacity" values="1;0" keyTimes="0;1" dur="1.0526315789473684s" begin="-0.7017543859649122s" repeatCount="indefinite"></animate>
  </rect>
</g><g transform="rotate(120 50 50)">
  <rect x="48.5" y="13.5" rx="1.5" ry="1.5" width="3" height="3" fill="#e4812f">
    <animate attributeName="opacity" values="1;0" keyTimes="0;1" dur="1.0526315789473684s" begin="-0.6140350877192983s" repeatCount="indefinite"></animate>
  </rect>
</g><g transform="rotate(150 50 50)">
  <rect x="48.5" y="13.5" rx="1.5" ry="1.5" width="3" height="3" fill="#e4812f">
    <animate attributeName="opacity" values="1;0" keyTimes="0;1" dur="1.0526315789473684s" begin="-0.5263157894736842s" repeatCount="indefinite"></animate>
  </rect>
</g><g transform="rotate(180 50 50)">
  <rect x="48.5" y="13.5" rx="1.5" ry="1.5" width="3" height="3" fill="#e4812f">
    <animate attributeName="opacity" values="1;0" keyTimes="0;1" dur="1.0526315789473684s" begin="-0.43859649122807015s" repeatCount="indefinite"></animate>
  </rect>
</g><g transform="rotate(210 50 50)">
  <rect x="48.5" y="13.5" rx="1.5" ry="1.5" width="3" height="3" fill="#e4812f">
    <animate attributeName="opacity" values="1;0" keyTimes="0;1" dur="1.0526315789473684s" begin="-0.3508771929824561s" repeatCount="indefinite"></animate>
  </rect>
</g><g transform="rotate(240 50 50)">
  <rect x="48.5" y="13.5" rx="1.5" ry="1.5" width="3" height="3" fill="#e4812f">
    <animate attributeName="opacity" values="1;0" keyTimes="0;1" dur="1.0526315789473684s" begin="-0.2631578947368421s" repeatCount="indefinite"></animate>
  </rect>
</g><g transform="rotate(270 50 50)">
  <rect x="48.5" y="13.5" rx="1.5" ry="1.5" width="3" height="3" fill="#e4812f">
    <animate attributeName="opacity" values="1;0" keyTimes="0;1" dur="1.0526315789473684s" begin="-0.17543859649122806s" repeatCount="indefinite"></animate>
  </rect>
</g><g transform="rotate(300 50 50)">
  <rect x="48.5" y="13.5" rx="1.5" ry="1.5" width="3" height="3" fill="#e4812f">
    <animate attributeName="opacity" values="1;0" keyTimes="0;1" dur="1.0526315789473684s" begin="-0.08771929824561403s" repeatCount="indefinite"></animate>
  </rect>
</g><g transform="rotate(330 50 50)">
  <rect x="48.5" y="13.5" rx="1.5" ry="1.5" width="3" height="3" fill="#e4812f">
    <animate attributeName="opacity" values="1;0" keyTimes="0;1" dur="1.0526315789473684s" begin="0s" repeatCount="indefinite"></animate>
  </rect>
</g>
<!-- [ldio] generated by https://loading.io/ --></svg>